<svg width="1014" height="649" fill="none" xmlns="http://www.w3.org/2000/svg"><path fill-rule="evenodd" clip-rule="evenodd" d="M615.552.027C741.254 1.61 855.093 61.35 934.168 140.444c71.582 71.594 81.822 165.773 79.552 257.847-2.21 89.627-18.013 181.053-92.034 247.745H128C-1.272 569.672-11.83 526.789 8.259 398.291c18.74-119.876 162.602-189.924 278.604-265.998C385.69 67.483 488.366-1.574 615.552.027Z" fill="#fff"/><path d="M864.775 86.038h-180.5c-9.19 0-16.64 7.45-16.64 16.64v258.11c0 9.19 7.45 16.64 16.64 16.64h180.5c9.19 0 16.64-7.45 16.64-16.64v-258.11c0-9.19-7.45-16.64-16.64-16.64Z" stroke="#CCDDE2" stroke-width="4.83" stroke-miterlimit="10"/><path d="M856.985 116.058h-162.73a8.32 8.32 0 0 0-8.32 8.32v34.61a8.32 8.32 0 0 0 8.32 8.32h162.73a8.32 8.32 0 0 0 8.32-8.32v-34.61a8.32 8.32 0 0 0-8.32-8.32Z" stroke="#CCDDE2" stroke-width="4.83" stroke-miterlimit="10"/><path d="M774.525 137.646a5.3 5.3 0 1 0 0-10.6 5.3 5.3 0 0 0 0 10.6ZM759.715 156.329c0-3.928 1.56-7.695 4.338-10.472a14.806 14.806 0 0 1 20.944 0 14.806 14.806 0 0 1 4.338 10.472h-29.62ZM775.605 222.238a28.554 28.554 0 0 0-26.37 17.631 28.551 28.551 0 0 0 50.119 26.779 28.547 28.547 0 0 0-3.555-36.052 28.546 28.546 0 0 0-20.194-8.358Zm0 50.21a4.184 4.184 0 0 1-3.976-4.175 4.18 4.18 0 0 1 3.976-4.175 4.179 4.179 0 0 1 2.823 7.057 4.184 4.184 0 0 1-2.823 1.293Zm5.27-32.11c-.88 6.19-1.62 12.69-3.47 18.71-.44 1.45-3.16 1.45-3.6 0a106.858 106.858 0 0 1-3-13.79c-.57-3.39-2.55-8.88-.66-12.17 1.67-3 6.37-3.3 9.1-1.76 3.35 1.89 2.03 5.93 1.63 9.01Z" fill="#D7E8F0"/><path d="M463.215 143.889a52.814 52.814 0 0 0-56.073 17.301 52.8 52.8 0 0 0-11.597 28.383 52.806 52.806 0 0 0 58.011 57.454 52.815 52.815 0 0 0 41.026-77.651 52.803 52.803 0 0 0-31.367-25.487Zm-26.53 89a7.724 7.724 0 0 1-4.978-9.537 7.719 7.719 0 1 1 4.978 9.537Zm26.3-54.14c-4.83 10.51-9.59 21.64-16 31.33-1.54 2.34-6.37.9-6.38-1.9a193.71 193.71 0 0 1 2-26c.78-6.29.17-17.07 5.26-21.91 4.52-4.33 13-2.47 17.05 1.69 4.87 5.08.41 11.55-1.93 16.79ZM315.715 260.816a26.416 26.416 0 0 0-5.475 28.839 26.417 26.417 0 0 0 48.813-.418 26.421 26.421 0 0 0-5.968-28.741 26.43 26.43 0 0 0-37.37.32Zm33.14 32.57a3.858 3.858 0 0 1-6.616-2.67 3.867 3.867 0 0 1 1.106-2.74 3.862 3.862 0 0 1 6.616 2.67 3.864 3.864 0 0 1-1.106 2.74Zm-17.77-24.29c3.51 4.6 7.32 9.31 10.09 14.43.67 1.23-1.09 3-2.33 2.38a97.287 97.287 0 0 1-11-7c-2.61-1.81-7.51-4.07-8.46-7.46-.86-3 2-6.34 4.74-7.13 3.37-.98 5.18 2.51 6.96 4.78Z" fill="#0FAEF0"/><path d="M703.875 190.187h139.47M703.875 203.917h139.47M703.875 292.316h139.47M736.265 305.308h74.68" stroke="#CCDDE2" stroke-width="4.83" stroke-miterlimit="10"/><path d="M874.685 596.188a41.065 41.065 0 0 1-4.54 17.17 6.046 6.046 0 0 1-.38.77 64.762 64.762 0 0 1-19.71 21.74l-.29.2a65.74 65.74 0 0 1-24.32 9.95h92.54s-12.38-176.55-126.16-262.45c-110.11-83.12-213.2-43.06-219.74-40.38a47.321 47.321 0 0 1 2.67 17.841s8.28 4.309 9.66 19.739c1.38 15.431 4.26 58.33-23.43 66.41 0 0-24.86-.609-31.43-10.149s-8.15-7.601-10.73-5.181c-2 1.83-14.07 8.37-19.64 11.37.704.034-.685 5.282 0 7.782 0 0 5.288 20.5 44.31 61.618a54.758 54.758 0 0 1 3.74 4.38c5.893 5.153 12.517 10.413 19.87 15.781l44.54 32.589a8.408 8.408 0 0 0 3.48 1.77 16.14 16.14 0 0 0 7.6.07c5.18-1 40.55-4.61 63.44-6.89.52 0 1.07-.1 1.58-.16l3-.29c.48 0 1-.1 1.42-.13l2.7-.26c1.32-.13 2.51-.26 3.61-.35l3-.289c2.65-.26 4.22-.421 4.35-.421a119.617 119.617 0 0 0 16.27-1.579c5.15-1 9.85-2.611 11.07-5.281a3.633 3.633 0 0 0 .25-1.779 9.995 9.995 0 0 0-2.06-4.641c-4.7-6.31-15.62-11.719-16.42-12.109a.105.105 0 0 0-.07 0l-.22-.161-65-50.5h-.07s9.79-104.44 99-78.74c0 0 .42.29 1.19.93 3.48 2.68 14.43 11.56 30.53 28.15.42.45.87.9 1.32 1.381 1.71 1.739 3.39 3.549 5.06 5.319 11.3 12.08 24.67 27.47 39.42 46.66l.1.1c16.9 22 29.08 42.16 37 60v.06c8.57 19.39 12.18 36 11.47 49.25.022.236.029.473.02.71Zm-269.07-179.51c-2.64-30.43 12.17-41.45 13-42.06-5.063 9.161-11.643 20.937-11.115 31.382.508 10.056-.86 18.774 2.357 28.089 7.341 21.247 27.405 38.096 28.128 39.289-1.12-.94-29.73-26.28-32.37-56.7Z" fill="#353642"/><path d="M549.675 410.708a35.018 35.018 0 0 1-3.42 2.22l-6.86-12c15.82-8.09 20.26-22.35 13.3-30.18a15.452 15.452 0 0 0-7.24-4.48c-7-2.12-11.85 1-15.14 5.19a35.69 35.69 0 0 0-5.8 12.14l-3.34-38.52-.26-3s-7.28-3.61-27-.39c-19.72 3.22-23.35 14.11-31.82 9.28-8.47-4.83-13.27-4.44-13.27-4.44-2.41 8.851-8.86 8.85-8.86 8.85-1.528-.185-10.024-8.309-11.465-8.85-9.15-8.41-9.5-19.028-9.5-19.028 9.6-1.19 10.6-7.43 9.5-15 5.32 3.16 16.47-3.082 27-9.842 30.21-19.32 61.61-4.768 72.5-3.158 4.86.71 6.985-1.5 11.395-3.5.57 1.021 5.093 5.557 6.05 6.228a57.888 57.888 0 0 1 17.71 19.74c28.35 52.99-2.73 81.13-13.48 88.74Z" fill="#0FAEF0"/><path d="M436.505 646.036h11.4a18.412 18.412 0 0 0 18.39-18.39v-12.76a8.837 8.837 0 0 0-.675-3.389 8.839 8.839 0 0 0-4.795-4.79 8.842 8.842 0 0 0-3.39-.671h-68.18a20.647 20.647 0 0 1-12.764 19.105 20.652 20.652 0 0 1-7.916 1.565h-246.37a19.338 19.338 0 0 0 19.33 19.33h334a3.323 3.323 0 0 0 2.351-.97 3.308 3.308 0 0 0 .969-2.35v-20.71a15.169 15.169 0 1 1 30.34 0v20.71a3.315 3.315 0 0 0 .966 2.347 3.314 3.314 0 0 0 2.344.973h405.48s-12.38-176.59-126.16-262.48c-110.11-83.12-213.2-43.06-219.74-40.38l-.32.12" stroke="#000" stroke-width="4.83" stroke-miterlimit="10"/><path d="M458.075 386.397a5.625 5.625 0 0 1-3.481 5.177 5.617 5.617 0 0 1-7.332-7.345 5.62 5.62 0 0 1 5.183-3.472c.435.002.868.056 1.29.16a2.865 2.865 0 0 0-2 2.74 2.897 2.897 0 0 0 .842 2.067 2.91 2.91 0 0 0 2.058.863 2.997 2.997 0 0 0 2.9-2.51c.345.726.529 1.517.54 2.32ZM497.085 387.965a5.64 5.64 0 1 1-5.64-5.63 3.42 3.42 0 0 1 .8.09 2.87 2.87 0 0 0-1.67 2.61 2.906 2.906 0 0 0 2.77 3.03 2.904 2.904 0 0 0 3.03-2.77 5.46 5.46 0 0 1 .71 2.67Z" fill="#000"/><path d="M542.075 291.738c-.65 4.38.16 8.22 3.38 10.5a57.888 57.888 0 0 1 17.71 19.74c33.82 63.19-16.91 91-16.91 91l-6.86-12c19.75-10.08 21.77-29.82 6.06-34.66-15.71-4.84-20.94 17.33-20.94 17.33l-3.6-41.55s-7.28-3.61-27-.39c-19.72 3.22-23.35 14.11-31.82 9.28-8.47-4.83-13.27-4.44-13.27-4.44-2.41 8.85-8.86 8.85-8.86 8.85-18.9-2.41-23.34-28.56-23.34-28.56 9.59-1.2 10.33-10.44 9.24-18 5.31 3.16 12.82 3.39 23.35-3.38 30.21-19.32 61.19-8.85 72.07-7.24 7.52 1.09 16.15-3.51 20.79-6.48Z" stroke="#000" stroke-width="4.83" stroke-linecap="round" stroke-linejoin="round"/><path d="m559.515 605.097 7.47-3 5.6 15.11-.88 27.42-7.57 1.37-28.73-1.24s2-16.72 8.11-24.67c6.11-7.95 16-14.99 16-14.99Z" fill="#0FAEF0"/><path d="M428.705 364.638s7.65-13.73 23.75-12.3M483.985 352.335s18.4-4.13 24.84 6.1M512.495 414.497s-11-6.37-19.05 4.34" stroke="#000" stroke-width="4.83" stroke-miterlimit="10"/><path d="M442.985 354.538s-7.83 92.11 50.56 90.41c10-.29 19.94-6.86 29.44-17.43" stroke="#000" stroke-width="4.83" stroke-miterlimit="10"/><path d="m546.255 435.896-23.27-8.38s5.77 18.44 34.35 19.85c28.58 1.41 38.17-64.18 17.17-90.57" stroke="#000" stroke-width="4.83" stroke-linejoin="round"/><path d="M637.235 620.675s-21.33 17.31-6.84 25.36M620.735 604.566s-37 20.94-5.23 41.47" stroke="#000" stroke-width="4.83" stroke-miterlimit="10"/><path d="M608.255 588.468s-49.11 23-11.27 57.57" stroke="#000" stroke-width="4.83" stroke-miterlimit="10"/><path d="M814.775 646.037s59.58 0 60.38-57.57c.8-57.57-115.53-202.13-190.81-222.24-75.28-20.11-78.51 34.999-78.51 37.259 0 2.26-4.42 26 14.9 51.33 14.92 19.58 80.82 68.46 110.06 89.7a6.54 6.54 0 0 1-3.23 11.8l-129.32 12.42h-.08c-1.22.22-46.86 8.64-60.76 22.94 0 0-7.79 5.77-3.76 14.63 4.03 8.86 16.41 5.94 16.75 5.61" stroke="#000" stroke-width="4.83" stroke-miterlimit="10"/><path opacity=".26" d="M491.455 398.426c8.892 0 16.1-7.208 16.1-16.1 0-8.892-7.208-16.1-16.1-16.1-8.892 0-16.1 7.208-16.1 16.1 0 8.892 7.208 16.1 16.1 16.1ZM450.595 396.836c8.892 0 16.1-7.208 16.1-16.1 0-8.892-7.208-16.1-16.1-16.1-8.892 0-16.1 7.208-16.1 16.1 0 8.892 7.208 16.1 16.1 16.1Z" fill="#fff"/><path d="M589.765 602.558c-5.66-1.58-14.91-3-24.44.06a35.544 35.544 0 0 0-12.63 7.19c-.8.7-1.57 1.41-2.31 2.12a59.367 59.367 0 0 0-4.51 4.95 1.203 1.203 0 0 1-.74.43c-3.55.49-26.92 4.19-26.8 16 .11 10.61 11.73 12.35 15.73 12.63a1.205 1.205 0 0 0 .913-.304 1.197 1.197 0 0 0 .397-.876c0-3.78.86-15.63 10.21-27.55M379.205 519.206c2.74 22.09-14.43 32.08-33.2 33.56" stroke="#000" stroke-width="4.83" stroke-miterlimit="10"/><path d="M318.725 548.157a39.702 39.702 0 0 1-20.42-40.64c3-21.25 21-37.55 38.62-47.89 37-21.71 120.38-6 134.39-2.8 10.74 2.46 19.72-5.94 23.36-10a1.208 1.208 0 0 1 1.825.028c.149.177.245.392.275.622 7.69 45 97 106.08 117.66 119.75" stroke="#000" stroke-width="4.83" stroke-miterlimit="10"/><path d="m401.735 503.929-29.57 18.35a14.859 14.859 0 0 1-11.935 1.672 14.856 14.856 0 0 1-9.245-7.732 14.829 14.829 0 0 1 5.72-19.3l45-26.81M491.455 398.426c8.892 0 16.1-7.208 16.1-16.1 0-8.892-7.208-16.1-16.1-16.1-8.892 0-16.1 7.208-16.1 16.1 0 8.892 7.208 16.1 16.1 16.1Z" stroke="#000" stroke-width="4.83" stroke-miterlimit="10"/><path d="M450.595 394.426c7.561 0 13.69-6.129 13.69-13.69s-6.129-13.69-13.69-13.69-13.69 6.129-13.69 13.69 6.129 13.69 13.69 13.69Z" stroke="#fff" stroke-width="4.83" stroke-miterlimit="10"/><path d="M450.595 396.836c8.892 0 16.1-7.208 16.1-16.1 0-8.892-7.208-16.1-16.1-16.1-8.892 0-16.1 7.208-16.1 16.1 0 8.892 7.208 16.1 16.1 16.1ZM475.435 380.738h-8.74M475.435 403.488h-5.76a2.466 2.466 0 0 1-2.386-1.847 2.46 2.46 0 0 1-.034-1.073l3.81-19.83M359.865 458.438s-20.53 4.429-27.77 35.429c-4.4 18.82-10.44 42.83-14.5 58.79a13.877 13.877 0 0 0 2.491 11.932 13.87 13.87 0 0 0 24.489-5.492l8.59-38.54M378.635 530.899s21.55-12.88 64 0 91.25 21.62 107.35-12.54M565.335 602.617s15 17.12 5.88 43.42" stroke="#000" stroke-width="4.83" stroke-miterlimit="10"/><path d="M69.665 389.726h237a34 34 0 0 1 33.09 26l37.73 156.26a28.676 28.676 0 0 1-5.342 24.465 28.679 28.679 0 0 1-22.528 10.935h-236.39a34 34 0 0 1-33.06-25.93l-38.34-156.23a28.671 28.671 0 0 1 27.84-35.5Z" fill="#0FAEF0"/><path d="M78.295 396.449h222.36A31.991 31.991 0 0 1 320.4 403.3a31.993 31.993 0 0 1 11.305 17.579l35.42 146.59a26.884 26.884 0 0 1-5.007 22.951 26.883 26.883 0 0 1-21.133 10.259h-221.82a32.002 32.002 0 0 1-31-24.33l-36-146.6a26.892 26.892 0 0 1 26.13-33.3Z" fill="#0FAEF0"/><path d="M69.665 389.726h237a34 34 0 0 1 33.09 26l37.73 156.26a28.676 28.676 0 0 1-5.342 24.465 28.679 28.679 0 0 1-22.528 10.935h-236.39a34 34 0 0 1-33.06-25.93l-38.34-156.23a28.671 28.671 0 0 1 27.84-35.5Z" stroke="#000" stroke-width="4.83" stroke-miterlimit="10"/><path d="m180.665 493.807-14.13-65.869a6.208 6.208 0 0 0-6.07-4.931h-69.92a6.209 6.209 0 0 0-6.05 4.915 6.2 6.2 0 0 0 .05 2.785l16.35 66.64a5.672 5.672 0 0 0 1.26 2.51 6 6 0 0 0 4.7 2.29h.13l67.67-.8a6.202 6.202 0 0 0 4.75-2.32 6.283 6.283 0 0 0 1.26-5.22Zm-91.45-64.28a1.33 1.33 0 0 1 .24-1.149 1.377 1.377 0 0 1 1.09-.541h69.92a1.361 1.361 0 0 1 1.34 1.09l10.76 50.17c-35.93-34.69-40 5.11-40 5.11-20.28-10.56-26.14 1-27.84 8.61l-15.51-63.29Z" fill="#D7E8F0"/><path d="M109.405 453.438c3.9-1.21 5.75-6.38 4.15-11.55-1.6-5.17-6.07-8.37-10-7.16-3.93 1.21-5.75 6.381-4.14 11.541 1.61 5.16 6.1 8.379 9.99 7.169ZM126.525 452.257h31.91c.802.022 1.6-.128 2.34-.44a3.215 3.215 0 0 0 1.785-2.712 3.226 3.226 0 0 0-1.485-2.888 4.984 4.984 0 0 1-1.45-1 4.002 4.002 0 0 1-.56-1.44 6.556 6.556 0 0 0-2.89-3.43 8.73 8.73 0 0 0-6.7-1.29 6.61 6.61 0 0 0-3 1.68c-.71.7-.85 1.64-1.4 2.42-.36.51-.59.35-1.08.07-.49-.28-.76-.49-1.16-.69a18.554 18.554 0 0 0-2.45-1.09 13.112 13.112 0 0 0-5.37-.79c-3.21.25-6.41 2.16-7.53 5.18a4.244 4.244 0 0 0-4.14 3.63 2.487 2.487 0 0 0 .66 2.15 3.556 3.556 0 0 0 2.52.64Z" fill="#D7E8F0"/><path d="m290.985 450.835-1.84-7.57a23.338 23.338 0 0 0-22.7-17.84h-25.27a18.745 18.745 0 0 0-14.907 7.357 18.745 18.745 0 0 0-3.193 16.313l2.09 7.69a23.3 23.3 0 0 0 22.51 17.23h25.12a18.737 18.737 0 0 0 18.3-14.777c.6-2.773.562-5.646-.11-8.403Zm-27.79 1.87-8.63 5.31a2.548 2.548 0 0 1-3.81-1.42l-3.25-10.62a2.594 2.594 0 0 1 .773-2.661 2.587 2.587 0 0 1 2.737-.439l11.97 5.29a2.566 2.566 0 0 1 1.207 3.543 2.562 2.562 0 0 1-.957.997h-.04Z" fill="#fff"/><path d="M285.345 518.835h-44.21a10.436 10.436 0 0 1-9.54-6.24 4.702 4.702 0 0 1-.4-1.81 4.58 4.58 0 0 1 4.57-4.54h47c-2.21 3.74-1.09 8.91 2.58 12.59Z" fill="#D7E8F0"/><path d="M313.985 514.295a4.552 4.552 0 0 1-4.54 4.54h-24.1c-3.67-3.68-4.79-8.85-2.58-12.59h21.22a10.445 10.445 0 0 1 9.54 6.21c.277.576.433 1.202.46 1.84Z" fill="#0FAEF0"/><path d="M302.875 518.836a5.166 5.166 0 0 1-.43.69c-3.16 4.31-10 4.71-15.31.83a15.345 15.345 0 0 1-1.79-1.52c-3.67-3.68-4.79-8.85-2.58-12.59.124-.238.268-.465.43-.68 3.13-4.34 10-4.72 15.28-.87.64.472 1.245.99 1.81 1.55 3.7 3.68 4.77 8.85 2.59 12.59Z" fill="#fff"/><path d="M325.055 542.098a4.58 4.58 0 0 1-4.57 4.54h-175.22c2.24-3.76 1.12-8.91-2.56-12.58h172.41a10.394 10.394 0 0 1 9.53 6.23c.259.569.399 1.185.41 1.81Z" fill="#0FAEF0"/><path d="M145.265 546.587h-21.83a10.42 10.42 0 0 1-9.54-6.209 4.665 4.665 0 0 1-.4-1.84 4.521 4.521 0 0 1 4.54-4.531h24.67c3.68 3.67 4.8 8.82 2.56 12.58Z" fill="#D7E8F0"/><path d="M145.265 546.587a3.088 3.088 0 0 1-.4.69c-3.13 4.34-10 4.71-15.29.86a16.197 16.197 0 0 1-1.8-1.55c-3.65-3.68-4.77-8.82-2.59-12.58.121-.243.265-.474.43-.69 3.16-4.31 10-4.71 15.31-.84.634.461 1.229.973 1.78 1.53 3.68 3.67 4.8 8.82 2.56 12.58Z" fill="#fff"/><path d="M160.725 574.098h-27.74a10.443 10.443 0 0 1-9.54-6.21 4.51 4.51 0 0 1-.46-1.79 4.569 4.569 0 0 1 1.339-3.22 4.568 4.568 0 0 1 3.221-1.34h30.57c-2.13 3.78-1.04 8.92 2.61 12.56Z" fill="#0FAEF0"/><path d="M334.565 569.629a4.529 4.529 0 0 1-4.58 4.47h-169.26c-3.65-3.68-4.77-8.82-2.59-12.58h166.49a10.394 10.394 0 0 1 9.53 6.23c.265.592.404 1.232.41 1.88Z" fill="#D7E8F0"/><path d="M178.245 574.098a4.278 4.278 0 0 1-.43.69c-3.13 4.34-10 4.711-15.28.861a16.19 16.19 0 0 1-1.81-1.551c-3.65-3.68-4.77-8.819-2.59-12.579.125-.24.269-.471.43-.69 3.16-4.31 10-4.691 15.31-.841.636.459 1.231.972 1.78 1.531 3.68 3.71 4.8 8.879 2.59 12.579Z" fill="#fff"/><g opacity=".21"><path opacity=".21" d="m183.085 496.215-14.1-65.87a6.188 6.188 0 0 0-6.07-4.92h-69.93a6.184 6.184 0 0 0-4.9 2.41 6.106 6.106 0 0 0-1.1 5.26l16.35 66.65c.2.928.629 1.792 1.25 2.51a6.006 6.006 0 0 0 4.71 2.28h.16l67.66-.81a6.173 6.173 0 0 0 4.74-2.31 6.284 6.284 0 0 0 1.23-5.2Zm-91.46-64.27a1.302 1.302 0 0 1 .25-1.15c.125-.168.288-.305.476-.398.187-.094.394-.143.604-.142h69.92a1.372 1.372 0 0 1 1.35 1.08l10.76 50.17c-35.94-34.7-40 5.11-40 5.11-20.27-10.56-26.14 1-27.83 8.61l-15.53-63.28Z" fill="#D7E8F0"/><path opacity=".21" d="M111.825 455.847c3.89-1.21 5.75-6.38 4.14-11.54-1.61-5.16-6.06-8.38-10-7.17-3.94 1.21-5.75 6.38-4.15 11.55 1.6 5.17 6.17 8.41 10.01 7.16ZM128.985 454.674h31.9c.803.023 1.6-.127 2.34-.44a3.205 3.205 0 0 0 1.795-2.711 3.207 3.207 0 0 0-1.495-2.889 5.502 5.502 0 0 1-1.45-1 4.464 4.464 0 0 1-.56-1.45 6.562 6.562 0 0 0-2.88-3.42 8.715 8.715 0 0 0-6.71-1.29 6.448 6.448 0 0 0-2.94 1.68c-.72.7-.85 1.63-1.4 2.42-.36.51-.59.35-1.08.06-.49-.29-.76-.48-1.16-.69a18.498 18.498 0 0 0-2.45-1.08 13.152 13.152 0 0 0-5.37-.8c-3.21.25-6.41 2.17-7.54 5.18a4.246 4.246 0 0 0-4.13 3.64 2.537 2.537 0 0 0 .65 2.15 3.645 3.645 0 0 0 2.48.64ZM287.765 521.244h-44.21a10.454 10.454 0 0 1-9.54-6.23 4.49 4.49 0 0 1 .341-4.321 4.492 4.492 0 0 1 3.829-2.029h47c-2.2 3.73-1.1 8.91 2.58 12.58Z" fill="#D7E8F0"/><path opacity=".21" d="M316.345 516.703a4.54 4.54 0 0 1-4.53 4.54h-24.05c-3.68-3.67-4.8-8.85-2.59-12.58h21.23a10.424 10.424 0 0 1 9.54 6.21c.256.577.392 1.2.4 1.83Z" fill="#0FAEF0"/><path opacity=".21" d="M305.285 521.245a3.756 3.756 0 0 1-.43.69c-3.16 4.31-10 4.71-15.31.84a15.262 15.262 0 0 1-1.78-1.53c-3.68-3.67-4.8-8.85-2.59-12.58.125-.243.272-.474.44-.69 3.13-4.34 10-4.71 15.28-.86.641.471 1.246.989 1.81 1.55 3.65 3.68 4.77 8.82 2.58 12.58Z" fill="#fff"/><path opacity=".21" d="M327.465 544.463a4.572 4.572 0 0 1-4.57 4.53h-175.21c2.24-3.76 1.12-8.9-2.56-12.58h172.4c2.025 0 4.006.59 5.7 1.699a10.403 10.403 0 0 1 3.84 4.541c.257.57.393 1.186.4 1.81Z" fill="#0FAEF0"/><path opacity=".21" d="M147.685 548.993h-21.84a10.45 10.45 0 0 1-9.54-6.2 4.893 4.893 0 0 1-.4-1.84 4.538 4.538 0 0 1 4.54-4.54h24.68c3.68 3.68 4.8 8.82 2.56 12.58Z" fill="#D7E8F0"/><path opacity=".21" d="M147.685 548.996a2.815 2.815 0 0 1-.41.69c-3.13 4.34-10 4.72-15.28.87a16.299 16.299 0 0 1-1.81-1.56c-3.65-3.67-4.77-8.82-2.58-12.58.118-.245.262-.477.43-.69 3.16-4.31 10-4.71 15.31-.83a16.21 16.21 0 0 1 1.78 1.52c3.68 3.68 4.8 8.82 2.56 12.58Z" fill="#fff"/><path opacity=".21" d="M163.135 576.544h-27.78a10.473 10.473 0 0 1-9.54-6.2 4.743 4.743 0 0 1-.4-1.81 4.59 4.59 0 0 1 4.57-4.57h30.57c-2.19 3.76-1.07 8.91 2.58 12.58Z" fill="#0FAEF0"/><path opacity=".21" d="M336.985 572.034a4.528 4.528 0 0 1-2.806 4.173c-.55.225-1.14.34-1.734.337h-169.31c-3.65-3.67-4.77-8.82-2.58-12.58h166.48a10.413 10.413 0 0 1 9.54 6.24c.26.576.399 1.199.41 1.83Z" fill="#D7E8F0"/><path opacity=".21" d="M180.665 576.546a4.406 4.406 0 0 1-.44.69c-3.13 4.34-10 4.72-15.28.87a16.194 16.194 0 0 1-1.81-1.56c-3.65-3.67-4.77-8.82-2.58-12.58.118-.245.262-.476.43-.69 3.16-4.31 10-4.68 15.31-.83a16.21 16.21 0 0 1 1.78 1.52c3.68 3.68 4.8 8.85 2.59 12.58Z" fill="#fff"/></g></svg>