<svg xmlns="http://www.w3.org/2000/svg" x="0px" y="0px" width="100" height="100" viewBox="0 0 50 50">
<path d="M 29 3 C 26.896 3 24.427687 4.636625 24.054688 12.015625 C 24.368687 12.007625 24.682 12 25 12 C 25.353 12 25.701781 12.007578 26.050781 12.017578 C 26.288781 7.5845781 27.354 5 29 5 C 29.703 5 30.091938 5.3873594 30.835938 6.1933594 C 31.702938 7.1333594 32.843547 8.3378281 35.060547 8.7988281 C 35.024547 8.5368281 35 8.271 35 8 C 35 7.578 35.045906 7.1665312 35.128906 6.7695312 C 33.753906 6.3935312 33.015688 5.6088906 32.304688 4.8378906 C 31.510687 3.9768906 30.61 3 29 3 z M 41 4 C 38.794 4 37 5.795 37 8 C 37 10.205 38.794 12 41 12 C 43.206 12 45 10.205 45 8 C 45 5.795 43.206 4 41 4 z M 25 14 C 12.869 14 3 20.178 3 29 C 3 37.822 12.869 45 25 45 C 37.131 45 47 37.822 47 29 C 47 20.178 37.131 14 25 14 z M 7.5 14.949219 C 6.04 14.949219 4.65275 15.53375 3.59375 16.59375 C 1.87175 18.31575 1.5247656 20.797656 2.5097656 22.847656 C 4.0197656 19.920656 6.5990781 17.423453 9.9550781 15.564453 C 9.1930781 15.177453 8.365 14.949219 7.5 14.949219 z M 42.5 14.949219 C 41.635 14.949219 40.805922 15.177453 40.044922 15.564453 C 43.399922 17.423453 45.980234 19.920656 47.490234 22.847656 C 48.475234 20.796656 48.12825 18.31575 46.40625 16.59375 C 45.34625 15.53375 43.96 14.949219 42.5 14.949219 z M 17 23 C 18.657 23 20 24.343 20 26 C 20 27.656 18.657 29 17 29 C 15.343 29 14 27.656 14 26 C 14 24.343 15.343 23 17 23 z M 33 23 C 34.656 23 36 24.343 36 26 C 36 27.656 34.656 29 33 29 C 31.344 29 30 27.656 30 26 C 30 24.343 31.344 23 33 23 z M 16.070312 34.013672 C 16.321562 34.057047 16.557297 34.195922 16.716797 34.419922 C 16.823797 34.568922 19.167 37.699219 25 37.699219 C 30.912 37.699219 33.25925 34.458781 33.28125 34.425781 C 33.59725 33.974781 34.223781 33.862641 34.675781 34.181641 C 35.126781 34.498641 35.234969 35.122219 34.917969 35.574219 C 34.799969 35.742219 31.939 39.699219 25 39.699219 C 18.06 39.699219 15.200031 35.742219 15.082031 35.574219 C 14.765031 35.122219 14.874172 34.499641 15.326172 34.181641 C 15.551672 34.023141 15.819063 33.970297 16.070312 34.013672 z"></path>
</svg>